<svg xmlns="http://www.w3.org/2000/svg" viewBox="0 0 1600 900" role="img" aria-label="Cinematic hero backdrop">
  <defs>
    <linearGradient id="bg" x1="0" y1="0" x2="1" y2="1">
      <stop offset="0%" stop-color="#130910"/>
      <stop offset="45%" stop-color="#24111b"/>
      <stop offset="100%" stop-color="#06080d"/>
    </linearGradient>
    <linearGradient id="beam" x1="0" y1="0" x2="1" y2="0">
      <stop offset="0%" stop-color="#e50914" stop-opacity=".8"/>
      <stop offset="100%" stop-color="#ffb565" stop-opacity="0"/>
    </linearGradient>
  </defs>
  <rect width="1600" height="900" fill="url(#bg)"/>
  <circle cx="1250" cy="180" r="180" fill="#e50914" fill-opacity=".18"/>
  <circle cx="320" cy="720" r="210" fill="#ff9354" fill-opacity=".11"/>
  <rect x="0" y="620" width="1600" height="280" fill="#08090d"/>
  <rect x="990" y="110" width="240" height="380" rx="26" fill="#0f1320" stroke="#ffffff" stroke-opacity=".12"/>
  <rect x="1080" y="160" width="250" height="420" rx="26" fill="#1a0d15" stroke="#ffffff" stroke-opacity=".12"/>
  <rect x="1180" y="205" width="250" height="430" rx="26" fill="#081019" stroke="#ffffff" stroke-opacity=".12"/>
  <rect x="995" y="116" width="230" height="370" rx="22" fill="url(#beam)" fill-opacity=".55"/>
  <rect x="1090" y="168" width="230" height="404" rx="22" fill="#2d1020"/>
  <rect x="1188" y="212" width="234" height="418" rx="22" fill="#101825"/>
  <path d="M0 540c220-120 450-146 690-79 114 31 241 92 352 90 112-2 223-53 558-193v542H0z" fill="#06080d" fill-opacity=".72"/>
  <path d="M0 470c236-118 480-146 724-76 111 32 232 95 341 94 110-1 228-50 535-176v122c-325 119-442 176-553 179-111 3-237-56-349-88C455 458 226 478 0 582z" fill="#ffffff" fill-opacity=".03"/>
  <path d="M820 108l-120 186 170 40-120 188" fill="none" stroke="#ffd1a8" stroke-linecap="round" stroke-linejoin="round" stroke-opacity=".72" stroke-width="18"/>
  <rect x="170" y="150" width="490" height="280" rx="30" fill="#05070b" fill-opacity=".56" stroke="#ffffff" stroke-opacity=".08"/>
  <text x="220" y="255" fill="#ffb3b9" font-family="'Trebuchet MS', sans-serif" font-size="34" letter-spacing="8">TONIGHT</text>
  <text x="220" y="345" fill="#ffffff" font-family="'Franklin Gothic Medium', sans-serif" font-size="94" font-weight="700">MOVE</text>
  <text x="220" y="418" fill="#ffffff" font-family="'Franklin Gothic Medium', sans-serif" font-size="94" font-weight="700">INTO FRAME</text>
  <text x="220" y="475" fill="#d7dde8" font-family="'Trebuchet MS', sans-serif" font-size="28">Poster-first discovery with a streaming-night glow.</text>
</svg>
